<?xml version="1.0" encoding="utf-8"?>
<!-- Generator: Adobe Illustrator 27.7.0, SVG Export Plug-In . SVG Version: 6.00 Build 0)  -->
<svg version="1.1" id="Layer_1" xmlns="http://www.w3.org/2000/svg" xmlns:xlink="http://www.w3.org/1999/xlink" x="0px" y="0px"
	 viewBox="0 0 140 136" style="enable-background:new 0 0 140 136;" xml:space="preserve">
<style type="text/css">
	.st0{fill:url(#SVGID_1_);}
</style>
<linearGradient id="SVGID_1_" gradientUnits="userSpaceOnUse" x1="-6.1126" y1="25.206" x2="88.3291" y2="128.9587" gradientTransform="matrix(1 0 0 -1 0 135.89)">
	<stop  offset="0" style="stop-color:#D9D9D9"/>
	<stop  offset="1" style="stop-color:#B3DBE3"/>
</linearGradient>
<path class="st0" d="M19.6,135.8c-4.4,0-9.1-0.3-14-0.9l-1.1-0.1c-5.2-0.7-5.9-2.7-2.2-6.4l0.8-0.8c9.6-9.6,18.5-25.7,27-42.1
	c-7.4-4.4-13.8-10-18.7-16.8C2.8,56.9-5.4,36.2,4.6,5.1L5,4C6.6-1,8.8-1.3,11.7,3.1l0.6,0.9c11.6,17.8,28.5,26.9,43.4,34.9
	c0.2,0.1,0.3,0.2,0.5,0.3C66.7,24.4,78.5,14,93.1,14c13.1,0,21,6.7,28.6,13.1c7.3,6.2,11.9,9.3,15.3,11.1c4.3,2.2,4,4.6-0.6,5.9
	C121,48.4,114.1,60,107.9,69.5c-4,6.2-8.3,12.8-14.9,17.7c-1,9.4-7.2,19.9-17.1,28.6C67,123.8,48.7,135.8,19.6,135.8z M15,127.1
	c29,1.3,46.8-10.2,55.3-17.6c6.5-5.8,10.5-11.7,12.5-16.8c-4.7,1.6-10.2,2.6-16.9,2.6c-9.8,0-19.5-2.1-28.2-5.9
	C30.6,103.2,23.1,116.8,15,127.1z M41.7,81.8c7.5,3.2,15.8,4.9,24.3,4.9c8,0,13.9-1.5,18.6-4.1C83.7,66.3,73.2,58.4,59,50.5
	C53,60,47.3,70.9,41.7,81.8z M10.5,16.1C6.4,34.6,9,50.9,18.3,63.7c4.1,5.7,9.5,10.5,15.7,14.2C39.6,67,45.3,56.1,51.4,46.4
	C37.8,39,22.6,30.8,10.5,16.1z M63.8,43.3c13.8,7.8,25.7,16.5,28.7,32.9c3.1-3.4,5.6-7.3,8.3-11.4c5.8-9,10.1-18.9,23.8-24.5
	c-3.8-2.4-5.3-4-8.4-6.6c-7-5.9-13.1-11.1-23-11.1C82.2,22.6,72.6,31,63.8,43.3z M101.8,41.2c-2.4,0-4.3-1.9-4.3-4.3
	s1.9-4.3,4.3-4.3c2.4,0,4.3,1.9,4.3,4.3S104.1,41.2,101.8,41.2z"/>
</svg>
